# xmcd CD database file
#
# Track frame offsets:
#	150
#	20577
#	42903
#	63067
#	83309
#	103514
#	124478
#	143668
#
# Disc length: 2167 seconds
#
# Revision: 0
# Processed by: cddbd v1.5.1PL0 Copyright (c) Steve Scherf et al.
# Submitted via: CDex 1.51
#
DISCID=5d087508
DTITLE=崎元仁&岩田匡治 - STELLA DEUS BGM Rearrange Album
DYEAR=2004
DGENRE=ゲーム
TTITLE0=Holy Spirit piano version [s]
TTITLE1=Earth Activity [si]
TTITLE2=Light Atlas [si]
TTITLE3=Ancient Wind [+arr i]
TTITLE4=Ancient Dream [si]
TTITLE5=Civil Water [+arr i]
TTITLE6=Sky Ray [+arr s]
TTITLE7=Planet She [s]
EXTD=YEAR: 2004
EXTT0=
EXTT1=
EXTT2=
EXTT3=
EXTT4=
EXTT5=
EXTT6=
EXTT7=
PLAYORDER=
